<mxfile host="Electron" agent="Mozilla/5.0 (Windows NT 10.0; Win64; x64) AppleWebKit/537.36 (KHTML, like Gecko) draw.io/27.0.9 Chrome/134.0.6998.205 Electron/35.4.0 Safari/537.36" version="27.0.9">
  <diagram name="Página-1" id="j4NhDDQyU3HfDKGGs6i3">
    <mxGraphModel dx="823" dy="575" grid="1" gridSize="10" guides="1" tooltips="1" connect="1" arrows="1" fold="1" page="1" pageScale="1" pageWidth="827" pageHeight="1169" math="0" shadow="0">
      <root>
        <mxCell id="0" />
        <mxCell id="1" parent="0" />
        <mxCell id="3xAvPwJ7bVQYbZ6u7dFE-45" value="" style="rounded=0;whiteSpace=wrap;html=1;fillColor=none;fontFamily=Helvetica;fontSize=11;fontColor=default;labelBackgroundColor=default;" vertex="1" parent="1">
          <mxGeometry x="21" y="280" width="519" height="180" as="geometry" />
        </mxCell>
        <mxCell id="CL5f3k3GWkQz9pZsJw-y-1" value="&lt;div&gt;&lt;span style=&quot;font-size: 10px;&quot;&gt;Ejercicio 11: Empresa de material informático&lt;/span&gt;&lt;/div&gt;&lt;div&gt;&lt;span style=&quot;font-size: 10px;&quot;&gt;Tenemos que diseñar una base de datos para una empresa de material informático, de la que tenemos esta&amp;nbsp;&lt;/span&gt;&lt;span style=&quot;font-size: 10px; background-color: transparent; color: light-dark(rgb(0, 0, 0), rgb(255, 255, 255));&quot;&gt;información:&lt;/span&gt;&lt;/div&gt;&lt;div&gt;&lt;span style=&quot;font-size: 10px;&quot;&gt;• Un equipo consta de varios componentes. Pueden ser necesarios varios componentes del mismo tipo&amp;nbsp;&lt;/span&gt;&lt;span style=&quot;font-size: 10px; background-color: transparent; color: light-dark(rgb(0, 0, 0), rgb(255, 255, 255));&quot;&gt;para montar un equipo, por lo que será necesario almacenar la cantidad de componentes que se&amp;nbsp;&lt;/span&gt;&lt;span style=&quot;font-size: 10px; background-color: transparent; color: light-dark(rgb(0, 0, 0), rgb(255, 255, 255));&quot;&gt;necesitan en cada caso.&lt;/span&gt;&lt;/div&gt;&lt;div&gt;&lt;span style=&quot;font-size: 10px;&quot;&gt;• &lt;font style=&quot;color: rgb(102, 255, 102);&quot;&gt;Un cliente puede comprar equipos completos o componentes sueltos. Habrá que almacenar la cantidad&amp;nbsp;&lt;/font&gt;&lt;/span&gt;&lt;font style=&quot;color: rgb(102, 255, 102);&quot;&gt;&lt;span style=&quot;font-size: 10px; background-color: transparent;&quot;&gt;de equipos o la cantidad de componentes de cada tipo que compra cada cliente. También habrá que&amp;nbsp;&lt;/span&gt;&lt;span style=&quot;font-size: 10px; background-color: transparent;&quot;&gt;guardar la fecha de la compra.&lt;/span&gt;&lt;/font&gt;&lt;/div&gt;&lt;div&gt;&lt;span style=&quot;font-size: 10px;&quot;&gt;•&lt;font style=&quot;color: rgb(0, 204, 0);&quot;&gt; Tenga en cuenta que un mismo cliente puede comprar el mismo equipo o el mismo componente en&amp;nbsp;&lt;/font&gt;&lt;/span&gt;&lt;font style=&quot;color: rgb(0, 204, 0);&quot;&gt;&lt;span style=&quot;font-size: 10px; background-color: transparent;&quot;&gt;diferentes fechas. El diseño de la base de datos debe permitir almacenar un histórico con todas las&amp;nbsp;&lt;/span&gt;&lt;span style=&quot;font-size: 10px; background-color: transparent;&quot;&gt;fechas y las cantidades de equipos o componentes que ha comprado.&lt;/span&gt;&lt;/font&gt;&lt;/div&gt;&lt;div&gt;&lt;span style=&quot;font-size: 10px;&quot;&gt;• &lt;font style=&quot;color: rgb(102, 255, 102);&quot;&gt;Cada equipo está etiquetado con un código de equipo, una descripción, un precio y el stock disponible.&lt;/font&gt;&lt;/span&gt;&lt;/div&gt;&lt;div&gt;&lt;font style=&quot;color: rgb(0, 204, 0);&quot;&gt;&lt;span style=&quot;font-size: 10px;&quot;&gt;• Cada componente está etiquetado con un código de componente, una descripción, un precio y el stock&amp;nbsp;&lt;/span&gt;&lt;span style=&quot;font-size: 10px; background-color: transparent;&quot;&gt;disponible.&lt;/span&gt;&lt;/font&gt;&lt;/div&gt;&lt;div&gt;&lt;font style=&quot;color: rgb(102, 255, 102);&quot;&gt;&lt;span style=&quot;font-size: 10px;&quot;&gt;• Los datos que almacenamos los clientes son el NIF, nombre, apellidos, domicilio, ciudad, provincia y&amp;nbsp;&lt;/span&gt;&lt;span style=&quot;font-size: 10px; background-color: transparent;&quot;&gt;teléfono.&lt;/span&gt;&lt;/font&gt;&lt;/div&gt;&lt;div&gt;&lt;span style=&quot;font-size: 10px;&quot;&gt;&lt;font style=&quot;color: rgb(0, 204, 0);&quot;&gt;• Los datos que almacenamos de los empleados son el NIF, nombre, apellidos y la sección donde trabaja.&lt;/font&gt;&lt;/span&gt;&lt;/div&gt;&lt;div&gt;&lt;span style=&quot;font-size: 10px;&quot;&gt;&lt;font style=&quot;color: rgb(102, 255, 102);&quot;&gt;• Un empleado trabaja en una única sección.&lt;/font&gt;&lt;/span&gt;&lt;/div&gt;&lt;div&gt;&lt;span style=&quot;font-size: 10px;&quot;&gt;&lt;font style=&quot;color: rgb(0, 204, 0);&quot;&gt;• Una sección se identifica por un id y un nombre de sección.&lt;/font&gt;&lt;/span&gt;&lt;/div&gt;&lt;div&gt;&lt;font style=&quot;color: rgb(102, 255, 102);&quot;&gt;&lt;span style=&quot;font-size: 10px;&quot;&gt;• En cada compra realizada por un cliente interviene un empleado y será necesario guardar qué empleado&amp;nbsp;&lt;/span&gt;&lt;span style=&quot;font-size: 10px; background-color: transparent;&quot;&gt;es el que ha atendido a cada cliente para cada una de las compras.&lt;/span&gt;&lt;/font&gt;&lt;/div&gt;" style="text;html=1;align=left;verticalAlign=middle;whiteSpace=wrap;rounded=0;" parent="1" vertex="1">
          <mxGeometry x="10" y="10" width="660" height="230" as="geometry" />
        </mxCell>
        <mxCell id="CL5f3k3GWkQz9pZsJw-y-2" value="cliente" style="whiteSpace=wrap;html=1;align=center;fillColor=#f0a30a;strokeColor=#BD7000;fontColor=#000000;" parent="1" vertex="1">
          <mxGeometry x="140" y="350" width="80" height="40" as="geometry" />
        </mxCell>
        <mxCell id="CL5f3k3GWkQz9pZsJw-y-3" value="&lt;p&gt;compra&lt;/p&gt;" style="shape=rhombus;perimeter=rhombusPerimeter;whiteSpace=wrap;html=1;align=center;fillColor=#76608a;fontColor=#ffffff;strokeColor=#432D57;" parent="1" vertex="1">
          <mxGeometry x="270" y="350" width="90" height="40" as="geometry" />
        </mxCell>
        <mxCell id="CL5f3k3GWkQz9pZsJw-y-4" value="" style="endArrow=none;html=1;rounded=0;exitX=0;exitY=0.5;exitDx=0;exitDy=0;entryX=1;entryY=0.5;entryDx=0;entryDy=0;" parent="1" source="CL5f3k3GWkQz9pZsJw-y-3" target="CL5f3k3GWkQz9pZsJw-y-2" edge="1">
          <mxGeometry relative="1" as="geometry">
            <mxPoint x="327" y="350" as="sourcePoint" />
            <mxPoint x="280" y="380" as="targetPoint" />
          </mxGeometry>
        </mxCell>
        <mxCell id="CL5f3k3GWkQz9pZsJw-y-5" value="(1,N)" style="resizable=0;html=1;whiteSpace=wrap;align=right;verticalAlign=bottom;" parent="CL5f3k3GWkQz9pZsJw-y-4" connectable="0" vertex="1">
          <mxGeometry x="1" relative="1" as="geometry">
            <mxPoint x="34" as="offset" />
          </mxGeometry>
        </mxCell>
        <mxCell id="CL5f3k3GWkQz9pZsJw-y-6" value="" style="endArrow=none;html=1;rounded=0;exitX=1;exitY=0.5;exitDx=0;exitDy=0;entryX=0;entryY=0.5;entryDx=0;entryDy=0;" parent="1" source="CL5f3k3GWkQz9pZsJw-y-3" target="iQsSJLiQr1wNeOMBnEc8-12" edge="1">
          <mxGeometry relative="1" as="geometry">
            <mxPoint x="327" y="350" as="sourcePoint" />
            <mxPoint x="410" y="370" as="targetPoint" />
          </mxGeometry>
        </mxCell>
        <mxCell id="CL5f3k3GWkQz9pZsJw-y-7" value="(1,M)" style="resizable=0;html=1;whiteSpace=wrap;align=right;verticalAlign=bottom;" parent="CL5f3k3GWkQz9pZsJw-y-6" connectable="0" vertex="1">
          <mxGeometry x="1" relative="1" as="geometry">
            <mxPoint as="offset" />
          </mxGeometry>
        </mxCell>
        <mxCell id="CL5f3k3GWkQz9pZsJw-y-17" value="ordenador" style="whiteSpace=wrap;html=1;align=center;fillColor=#f0a30a;strokeColor=#BD7000;fontColor=#000000;" parent="1" vertex="1">
          <mxGeometry x="260" y="585" width="100" height="40" as="geometry" />
        </mxCell>
        <mxCell id="CL5f3k3GWkQz9pZsJw-y-18" value="componente" style="whiteSpace=wrap;html=1;align=center;fillColor=#f0a30a;strokeColor=#BD7000;fontColor=#000000;" parent="1" vertex="1">
          <mxGeometry x="600" y="585" width="100" height="40" as="geometry" />
        </mxCell>
        <mxCell id="iQsSJLiQr1wNeOMBnEc8-12" value="producto" style="whiteSpace=wrap;html=1;align=center;fillColor=#f0a30a;strokeColor=#BD7000;fontColor=#000000;" parent="1" vertex="1">
          <mxGeometry x="420" y="350" width="100" height="40" as="geometry" />
        </mxCell>
        <mxCell id="iQsSJLiQr1wNeOMBnEc8-13" value="" style="triangle;whiteSpace=wrap;html=1;rotation=90;fillColor=#f0a30a;strokeColor=#BD7000;fontColor=#000000;" parent="1" vertex="1">
          <mxGeometry x="455" y="470" width="30" height="60" as="geometry" />
        </mxCell>
        <mxCell id="iQsSJLiQr1wNeOMBnEc8-14" value="" style="endArrow=none;html=1;rounded=0;exitX=0.5;exitY=1;exitDx=0;exitDy=0;entryX=0.5;entryY=0;entryDx=0;entryDy=0;" parent="1" source="iQsSJLiQr1wNeOMBnEc8-13" target="CL5f3k3GWkQz9pZsJw-y-17" edge="1">
          <mxGeometry relative="1" as="geometry">
            <mxPoint x="610" y="515" as="sourcePoint" />
            <mxPoint x="330" y="573" as="targetPoint" />
          </mxGeometry>
        </mxCell>
        <mxCell id="iQsSJLiQr1wNeOMBnEc8-15" value="" style="endArrow=none;html=1;rounded=0;exitX=0.5;exitY=0;exitDx=0;exitDy=0;entryX=0.5;entryY=0;entryDx=0;entryDy=0;" parent="1" source="iQsSJLiQr1wNeOMBnEc8-13" target="CL5f3k3GWkQz9pZsJw-y-18" edge="1">
          <mxGeometry relative="1" as="geometry">
            <mxPoint x="610" y="515" as="sourcePoint" />
            <mxPoint x="620" y="573" as="targetPoint" />
          </mxGeometry>
        </mxCell>
        <mxCell id="iQsSJLiQr1wNeOMBnEc8-16" value="" style="ellipse;whiteSpace=wrap;html=1;aspect=fixed;" parent="1" vertex="1">
          <mxGeometry x="465" y="405" width="10" height="10" as="geometry" />
        </mxCell>
        <mxCell id="iQsSJLiQr1wNeOMBnEc8-17" value="" style="endArrow=none;html=1;rounded=0;exitX=0.5;exitY=0;exitDx=0;exitDy=0;entryX=0.5;entryY=1;entryDx=0;entryDy=0;" parent="1" source="iQsSJLiQr1wNeOMBnEc8-16" target="iQsSJLiQr1wNeOMBnEc8-12" edge="1">
          <mxGeometry relative="1" as="geometry">
            <mxPoint x="610" y="460" as="sourcePoint" />
            <mxPoint x="770" y="460" as="targetPoint" />
          </mxGeometry>
        </mxCell>
        <mxCell id="iQsSJLiQr1wNeOMBnEc8-18" value="" style="endArrow=none;html=1;rounded=0;exitX=0.5;exitY=1;exitDx=0;exitDy=0;entryX=0;entryY=0.5;entryDx=0;entryDy=0;" parent="1" source="iQsSJLiQr1wNeOMBnEc8-16" target="iQsSJLiQr1wNeOMBnEc8-13" edge="1">
          <mxGeometry relative="1" as="geometry">
            <mxPoint x="610" y="460" as="sourcePoint" />
            <mxPoint x="770" y="460" as="targetPoint" />
          </mxGeometry>
        </mxCell>
        <mxCell id="iQsSJLiQr1wNeOMBnEc8-19" value="" style="ellipse;whiteSpace=wrap;html=1;aspect=fixed;" parent="1" vertex="1">
          <mxGeometry x="517" y="489" width="10" height="10" as="geometry" />
        </mxCell>
        <mxCell id="iQsSJLiQr1wNeOMBnEc8-20" value="" style="endArrow=none;html=1;rounded=0;exitX=0;exitY=0.5;exitDx=0;exitDy=0;entryX=0.3;entryY=0.167;entryDx=0;entryDy=0;entryPerimeter=0;" parent="1" source="iQsSJLiQr1wNeOMBnEc8-19" target="iQsSJLiQr1wNeOMBnEc8-13" edge="1">
          <mxGeometry relative="1" as="geometry">
            <mxPoint x="610" y="515" as="sourcePoint" />
            <mxPoint x="770" y="515" as="targetPoint" />
          </mxGeometry>
        </mxCell>
        <mxCell id="iQsSJLiQr1wNeOMBnEc8-21" value="Tipo" style="text;html=1;align=center;verticalAlign=middle;whiteSpace=wrap;rounded=0;" parent="1" vertex="1">
          <mxGeometry x="517" y="479" width="60" height="30" as="geometry" />
        </mxCell>
        <mxCell id="iQsSJLiQr1wNeOMBnEc8-22" value="" style="endArrow=none;html=1;rounded=0;" parent="1" edge="1">
          <mxGeometry relative="1" as="geometry">
            <mxPoint x="380" y="515" as="sourcePoint" />
            <mxPoint x="560" y="515" as="targetPoint" />
            <Array as="points">
              <mxPoint x="470" y="545" />
            </Array>
          </mxGeometry>
        </mxCell>
        <mxCell id="3xAvPwJ7bVQYbZ6u7dFE-1" value="compone" style="shape=rhombus;perimeter=rhombusPerimeter;whiteSpace=wrap;html=1;align=center;fillColor=#76608a;fontColor=#ffffff;strokeColor=#432D57;" vertex="1" parent="1">
          <mxGeometry x="440" y="585" width="90" height="40" as="geometry" />
        </mxCell>
        <mxCell id="3xAvPwJ7bVQYbZ6u7dFE-2" value="" style="endArrow=none;html=1;rounded=0;exitX=0;exitY=0.5;exitDx=0;exitDy=0;entryX=1;entryY=0.5;entryDx=0;entryDy=0;" edge="1" source="3xAvPwJ7bVQYbZ6u7dFE-1" parent="1" target="CL5f3k3GWkQz9pZsJw-y-17">
          <mxGeometry relative="1" as="geometry">
            <mxPoint x="417" y="575" as="sourcePoint" />
            <mxPoint x="370" y="605" as="targetPoint" />
          </mxGeometry>
        </mxCell>
        <mxCell id="3xAvPwJ7bVQYbZ6u7dFE-3" value="(1,1)" style="resizable=0;html=1;whiteSpace=wrap;align=right;verticalAlign=bottom;" connectable="0" vertex="1" parent="3xAvPwJ7bVQYbZ6u7dFE-2">
          <mxGeometry x="1" relative="1" as="geometry">
            <mxPoint x="34" as="offset" />
          </mxGeometry>
        </mxCell>
        <mxCell id="3xAvPwJ7bVQYbZ6u7dFE-4" value="" style="endArrow=none;html=1;rounded=0;exitX=1;exitY=0.5;exitDx=0;exitDy=0;entryX=0;entryY=0.5;entryDx=0;entryDy=0;" edge="1" source="3xAvPwJ7bVQYbZ6u7dFE-1" parent="1" target="CL5f3k3GWkQz9pZsJw-y-18">
          <mxGeometry relative="1" as="geometry">
            <mxPoint x="417" y="575" as="sourcePoint" />
            <mxPoint x="590" y="605" as="targetPoint" />
          </mxGeometry>
        </mxCell>
        <mxCell id="3xAvPwJ7bVQYbZ6u7dFE-5" value="(1,N)" style="resizable=0;html=1;whiteSpace=wrap;align=right;verticalAlign=bottom;" connectable="0" vertex="1" parent="3xAvPwJ7bVQYbZ6u7dFE-4">
          <mxGeometry x="1" relative="1" as="geometry">
            <mxPoint as="offset" />
          </mxGeometry>
        </mxCell>
        <mxCell id="3xAvPwJ7bVQYbZ6u7dFE-7" value="" style="endArrow=none;html=1;rounded=0;exitX=1;exitY=0;exitDx=0;exitDy=0;" edge="1" target="3xAvPwJ7bVQYbZ6u7dFE-8" parent="1" source="CL5f3k3GWkQz9pZsJw-y-3">
          <mxGeometry relative="1" as="geometry">
            <mxPoint x="335" y="315" as="sourcePoint" />
            <mxPoint x="395" y="315" as="targetPoint" />
          </mxGeometry>
        </mxCell>
        <mxCell id="3xAvPwJ7bVQYbZ6u7dFE-8" value="cantidadItems" style="ellipse;whiteSpace=wrap;html=1;align=center;" vertex="1" parent="1">
          <mxGeometry x="310" y="300" width="100" height="30" as="geometry" />
        </mxCell>
        <mxCell id="3xAvPwJ7bVQYbZ6u7dFE-9" value="" style="endArrow=none;html=1;rounded=0;exitX=1;exitY=1;exitDx=0;exitDy=0;" edge="1" target="3xAvPwJ7bVQYbZ6u7dFE-10" parent="1" source="CL5f3k3GWkQz9pZsJw-y-3">
          <mxGeometry relative="1" as="geometry">
            <mxPoint x="300" y="430" as="sourcePoint" />
            <mxPoint x="360" y="430" as="targetPoint" />
          </mxGeometry>
        </mxCell>
        <mxCell id="3xAvPwJ7bVQYbZ6u7dFE-10" value="fechaCompra" style="ellipse;whiteSpace=wrap;html=1;align=center;" vertex="1" parent="1">
          <mxGeometry x="317.5" y="395" width="85" height="30" as="geometry" />
        </mxCell>
        <mxCell id="3xAvPwJ7bVQYbZ6u7dFE-12" value="" style="endArrow=none;html=1;rounded=0;exitX=0.5;exitY=0;exitDx=0;exitDy=0;" edge="1" target="3xAvPwJ7bVQYbZ6u7dFE-13" parent="1" source="CL5f3k3GWkQz9pZsJw-y-17">
          <mxGeometry relative="1" as="geometry">
            <mxPoint x="260" y="545" as="sourcePoint" />
            <mxPoint x="320" y="545" as="targetPoint" />
          </mxGeometry>
        </mxCell>
        <mxCell id="3xAvPwJ7bVQYbZ6u7dFE-13" value="&lt;u&gt;codEquipo&lt;/u&gt;" style="ellipse;whiteSpace=wrap;html=1;align=center;" vertex="1" parent="1">
          <mxGeometry x="272.5" y="530" width="75" height="30" as="geometry" />
        </mxCell>
        <mxCell id="3xAvPwJ7bVQYbZ6u7dFE-14" value="" style="endArrow=none;html=1;rounded=0;exitX=0;exitY=0;exitDx=0;exitDy=0;" edge="1" target="3xAvPwJ7bVQYbZ6u7dFE-15" parent="1" source="CL5f3k3GWkQz9pZsJw-y-17">
          <mxGeometry relative="1" as="geometry">
            <mxPoint x="150" y="575" as="sourcePoint" />
            <mxPoint x="210" y="575" as="targetPoint" />
          </mxGeometry>
        </mxCell>
        <mxCell id="3xAvPwJ7bVQYbZ6u7dFE-15" value="descripcion" style="ellipse;whiteSpace=wrap;html=1;align=center;" vertex="1" parent="1">
          <mxGeometry x="195" y="545" width="65" height="30" as="geometry" />
        </mxCell>
        <mxCell id="3xAvPwJ7bVQYbZ6u7dFE-18" value="" style="endArrow=none;html=1;rounded=0;exitX=0;exitY=1;exitDx=0;exitDy=0;" edge="1" target="3xAvPwJ7bVQYbZ6u7dFE-19" parent="1" source="CL5f3k3GWkQz9pZsJw-y-17">
          <mxGeometry relative="1" as="geometry">
            <mxPoint x="135" y="640" as="sourcePoint" />
            <mxPoint x="195" y="640" as="targetPoint" />
          </mxGeometry>
        </mxCell>
        <mxCell id="3xAvPwJ7bVQYbZ6u7dFE-19" value="stock" style="ellipse;whiteSpace=wrap;html=1;align=center;" vertex="1" parent="1">
          <mxGeometry x="180" y="625" width="50" height="30" as="geometry" />
        </mxCell>
        <mxCell id="3xAvPwJ7bVQYbZ6u7dFE-20" value="" style="endArrow=none;html=1;rounded=0;exitX=0;exitY=0.5;exitDx=0;exitDy=0;" edge="1" target="3xAvPwJ7bVQYbZ6u7dFE-21" parent="1" source="CL5f3k3GWkQz9pZsJw-y-17">
          <mxGeometry relative="1" as="geometry">
            <mxPoint x="80" y="560" as="sourcePoint" />
            <mxPoint x="140" y="560" as="targetPoint" />
          </mxGeometry>
        </mxCell>
        <mxCell id="3xAvPwJ7bVQYbZ6u7dFE-21" value="precio" style="ellipse;whiteSpace=wrap;html=1;align=center;" vertex="1" parent="1">
          <mxGeometry x="170" y="585" width="50" height="30" as="geometry" />
        </mxCell>
        <mxCell id="3xAvPwJ7bVQYbZ6u7dFE-26" style="rounded=0;orthogonalLoop=1;jettySize=auto;html=1;endArrow=none;startFill=0;" edge="1" parent="1" source="3xAvPwJ7bVQYbZ6u7dFE-22" target="CL5f3k3GWkQz9pZsJw-y-18">
          <mxGeometry relative="1" as="geometry" />
        </mxCell>
        <mxCell id="3xAvPwJ7bVQYbZ6u7dFE-22" value="&lt;u&gt;codCompo&lt;/u&gt;" style="ellipse;whiteSpace=wrap;html=1;align=center;" vertex="1" parent="1">
          <mxGeometry x="612.5" y="524" width="75" height="30" as="geometry" />
        </mxCell>
        <mxCell id="3xAvPwJ7bVQYbZ6u7dFE-27" style="edgeStyle=none;shape=connector;rounded=0;orthogonalLoop=1;jettySize=auto;html=1;exitX=0;exitY=1;exitDx=0;exitDy=0;strokeColor=default;align=center;verticalAlign=middle;fontFamily=Helvetica;fontSize=11;fontColor=default;labelBackgroundColor=default;startFill=0;endArrow=none;" edge="1" parent="1" source="3xAvPwJ7bVQYbZ6u7dFE-23" target="CL5f3k3GWkQz9pZsJw-y-18">
          <mxGeometry relative="1" as="geometry" />
        </mxCell>
        <mxCell id="3xAvPwJ7bVQYbZ6u7dFE-23" value="descripcion" style="ellipse;whiteSpace=wrap;html=1;align=center;" vertex="1" parent="1">
          <mxGeometry x="700" y="524" width="65" height="30" as="geometry" />
        </mxCell>
        <mxCell id="3xAvPwJ7bVQYbZ6u7dFE-29" style="edgeStyle=none;shape=connector;rounded=0;orthogonalLoop=1;jettySize=auto;html=1;exitX=0;exitY=0.5;exitDx=0;exitDy=0;entryX=1;entryY=0.75;entryDx=0;entryDy=0;strokeColor=default;align=center;verticalAlign=middle;fontFamily=Helvetica;fontSize=11;fontColor=default;labelBackgroundColor=default;startFill=0;endArrow=none;" edge="1" parent="1" source="3xAvPwJ7bVQYbZ6u7dFE-24" target="CL5f3k3GWkQz9pZsJw-y-18">
          <mxGeometry relative="1" as="geometry" />
        </mxCell>
        <mxCell id="3xAvPwJ7bVQYbZ6u7dFE-24" value="stock" style="ellipse;whiteSpace=wrap;html=1;align=center;" vertex="1" parent="1">
          <mxGeometry x="715" y="604" width="50" height="30" as="geometry" />
        </mxCell>
        <mxCell id="3xAvPwJ7bVQYbZ6u7dFE-28" style="edgeStyle=none;shape=connector;rounded=0;orthogonalLoop=1;jettySize=auto;html=1;exitX=0;exitY=0.5;exitDx=0;exitDy=0;entryX=1;entryY=0;entryDx=0;entryDy=0;strokeColor=default;align=center;verticalAlign=middle;fontFamily=Helvetica;fontSize=11;fontColor=default;labelBackgroundColor=default;startFill=0;endArrow=none;" edge="1" parent="1" source="3xAvPwJ7bVQYbZ6u7dFE-25" target="CL5f3k3GWkQz9pZsJw-y-18">
          <mxGeometry relative="1" as="geometry" />
        </mxCell>
        <mxCell id="3xAvPwJ7bVQYbZ6u7dFE-25" value="precio" style="ellipse;whiteSpace=wrap;html=1;align=center;" vertex="1" parent="1">
          <mxGeometry x="715" y="564" width="50" height="30" as="geometry" />
        </mxCell>
        <mxCell id="3xAvPwJ7bVQYbZ6u7dFE-30" value="" style="endArrow=none;html=1;rounded=0;strokeColor=default;align=center;verticalAlign=middle;fontFamily=Helvetica;fontSize=11;fontColor=default;labelBackgroundColor=default;exitX=0.5;exitY=0;exitDx=0;exitDy=0;" edge="1" target="3xAvPwJ7bVQYbZ6u7dFE-31" parent="1" source="CL5f3k3GWkQz9pZsJw-y-2">
          <mxGeometry relative="1" as="geometry">
            <mxPoint x="40" y="315" as="sourcePoint" />
            <mxPoint x="100" y="315" as="targetPoint" />
          </mxGeometry>
        </mxCell>
        <mxCell id="3xAvPwJ7bVQYbZ6u7dFE-31" value="&lt;u&gt;NIF&lt;/u&gt;" style="ellipse;whiteSpace=wrap;html=1;align=center;fontFamily=Helvetica;fontSize=11;fontColor=default;labelBackgroundColor=default;" vertex="1" parent="1">
          <mxGeometry x="155" y="300" width="50" height="30" as="geometry" />
        </mxCell>
        <mxCell id="3xAvPwJ7bVQYbZ6u7dFE-32" value="" style="endArrow=none;html=1;rounded=0;strokeColor=default;align=center;verticalAlign=middle;fontFamily=Helvetica;fontSize=11;fontColor=default;labelBackgroundColor=default;exitX=0.25;exitY=0;exitDx=0;exitDy=0;" edge="1" target="3xAvPwJ7bVQYbZ6u7dFE-33" parent="1" source="CL5f3k3GWkQz9pZsJw-y-2">
          <mxGeometry relative="1" as="geometry">
            <mxPoint x="50" y="355" as="sourcePoint" />
            <mxPoint x="110" y="355" as="targetPoint" />
          </mxGeometry>
        </mxCell>
        <mxCell id="3xAvPwJ7bVQYbZ6u7dFE-33" value="nombre" style="ellipse;whiteSpace=wrap;html=1;align=center;fontFamily=Helvetica;fontSize=11;fontColor=default;labelBackgroundColor=default;" vertex="1" parent="1">
          <mxGeometry x="90" y="310" width="50" height="30" as="geometry" />
        </mxCell>
        <mxCell id="3xAvPwJ7bVQYbZ6u7dFE-34" value="" style="endArrow=none;html=1;rounded=0;strokeColor=default;align=center;verticalAlign=middle;fontFamily=Helvetica;fontSize=11;fontColor=default;labelBackgroundColor=default;exitX=0;exitY=0.25;exitDx=0;exitDy=0;" edge="1" target="3xAvPwJ7bVQYbZ6u7dFE-35" parent="1" source="CL5f3k3GWkQz9pZsJw-y-2">
          <mxGeometry relative="1" as="geometry">
            <mxPoint x="5" y="380" as="sourcePoint" />
            <mxPoint x="65" y="380" as="targetPoint" />
          </mxGeometry>
        </mxCell>
        <mxCell id="3xAvPwJ7bVQYbZ6u7dFE-35" value="apellidos" style="ellipse;whiteSpace=wrap;html=1;align=center;fontFamily=Helvetica;fontSize=11;fontColor=default;labelBackgroundColor=default;" vertex="1" parent="1">
          <mxGeometry x="50" y="340" width="50" height="30" as="geometry" />
        </mxCell>
        <mxCell id="3xAvPwJ7bVQYbZ6u7dFE-36" value="" style="endArrow=none;html=1;rounded=0;strokeColor=default;align=center;verticalAlign=middle;fontFamily=Helvetica;fontSize=11;fontColor=default;labelBackgroundColor=default;exitX=-0.034;exitY=0.652;exitDx=0;exitDy=0;exitPerimeter=0;" edge="1" target="3xAvPwJ7bVQYbZ6u7dFE-37" parent="1" source="CL5f3k3GWkQz9pZsJw-y-2">
          <mxGeometry relative="1" as="geometry">
            <mxPoint x="15" y="410" as="sourcePoint" />
            <mxPoint x="75" y="410" as="targetPoint" />
          </mxGeometry>
        </mxCell>
        <mxCell id="3xAvPwJ7bVQYbZ6u7dFE-37" value="domicilio" style="ellipse;whiteSpace=wrap;html=1;align=center;fontFamily=Helvetica;fontSize=11;fontColor=default;labelBackgroundColor=default;" vertex="1" parent="1">
          <mxGeometry x="50" y="385" width="50" height="30" as="geometry" />
        </mxCell>
        <mxCell id="3xAvPwJ7bVQYbZ6u7dFE-38" value="" style="endArrow=none;html=1;rounded=0;strokeColor=default;align=center;verticalAlign=middle;fontFamily=Helvetica;fontSize=11;fontColor=default;labelBackgroundColor=default;exitX=0.25;exitY=1;exitDx=0;exitDy=0;" edge="1" target="3xAvPwJ7bVQYbZ6u7dFE-39" parent="1" source="CL5f3k3GWkQz9pZsJw-y-2">
          <mxGeometry relative="1" as="geometry">
            <mxPoint x="40" y="459" as="sourcePoint" />
            <mxPoint x="100" y="459" as="targetPoint" />
          </mxGeometry>
        </mxCell>
        <mxCell id="3xAvPwJ7bVQYbZ6u7dFE-39" value="ciudad" style="ellipse;whiteSpace=wrap;html=1;align=center;fontFamily=Helvetica;fontSize=11;fontColor=default;labelBackgroundColor=default;" vertex="1" parent="1">
          <mxGeometry x="60" y="424" width="50" height="30" as="geometry" />
        </mxCell>
        <mxCell id="3xAvPwJ7bVQYbZ6u7dFE-40" value="" style="endArrow=none;html=1;rounded=0;strokeColor=default;align=center;verticalAlign=middle;fontFamily=Helvetica;fontSize=11;fontColor=default;labelBackgroundColor=default;exitX=0.5;exitY=1;exitDx=0;exitDy=0;" edge="1" target="3xAvPwJ7bVQYbZ6u7dFE-41" parent="1" source="CL5f3k3GWkQz9pZsJw-y-2">
          <mxGeometry relative="1" as="geometry">
            <mxPoint x="130" y="445" as="sourcePoint" />
            <mxPoint x="190" y="445" as="targetPoint" />
          </mxGeometry>
        </mxCell>
        <mxCell id="3xAvPwJ7bVQYbZ6u7dFE-41" value="provincia" style="ellipse;whiteSpace=wrap;html=1;align=center;fontFamily=Helvetica;fontSize=11;fontColor=default;labelBackgroundColor=default;" vertex="1" parent="1">
          <mxGeometry x="120" y="415" width="50" height="30" as="geometry" />
        </mxCell>
        <mxCell id="3xAvPwJ7bVQYbZ6u7dFE-42" value="" style="endArrow=none;html=1;rounded=0;strokeColor=default;align=center;verticalAlign=middle;fontFamily=Helvetica;fontSize=11;fontColor=default;labelBackgroundColor=default;exitX=0.75;exitY=1;exitDx=0;exitDy=0;" edge="1" target="3xAvPwJ7bVQYbZ6u7dFE-43" parent="1" source="CL5f3k3GWkQz9pZsJw-y-2">
          <mxGeometry relative="1" as="geometry">
            <mxPoint x="188" y="439" as="sourcePoint" />
            <mxPoint x="248" y="439" as="targetPoint" />
          </mxGeometry>
        </mxCell>
        <mxCell id="3xAvPwJ7bVQYbZ6u7dFE-43" value="telefono" style="ellipse;whiteSpace=wrap;html=1;align=center;fontFamily=Helvetica;fontSize=11;fontColor=default;labelBackgroundColor=default;" vertex="1" parent="1">
          <mxGeometry x="180" y="414" width="50" height="30" as="geometry" />
        </mxCell>
        <mxCell id="3xAvPwJ7bVQYbZ6u7dFE-56" value="interviene" style="shape=rhombus;perimeter=rhombusPerimeter;whiteSpace=wrap;html=1;align=center;fillColor=#76608a;fontColor=#ffffff;strokeColor=#432D57;verticalAlign=middle;fontFamily=Helvetica;fontSize=12;" vertex="1" parent="1">
          <mxGeometry x="110" y="730" width="90" height="40" as="geometry" />
        </mxCell>
        <mxCell id="3xAvPwJ7bVQYbZ6u7dFE-57" value="" style="endArrow=none;html=1;rounded=0;exitX=0.5;exitY=0;exitDx=0;exitDy=0;strokeColor=default;align=center;verticalAlign=middle;fontFamily=Helvetica;fontSize=12;fontColor=#ffffff;labelBackgroundColor=default;entryX=0.25;entryY=1;entryDx=0;entryDy=0;" edge="1" source="3xAvPwJ7bVQYbZ6u7dFE-56" parent="1" target="3xAvPwJ7bVQYbZ6u7dFE-45">
          <mxGeometry relative="1" as="geometry">
            <mxPoint x="337" y="680" as="sourcePoint" />
            <mxPoint x="290" y="710" as="targetPoint" />
          </mxGeometry>
        </mxCell>
        <mxCell id="3xAvPwJ7bVQYbZ6u7dFE-58" value="(1,N)" style="resizable=0;html=1;whiteSpace=wrap;align=right;verticalAlign=bottom;strokeColor=#432D57;fontFamily=Helvetica;fontSize=12;fontColor=#ffffff;fillColor=#76608a;" connectable="0" vertex="1" parent="3xAvPwJ7bVQYbZ6u7dFE-57">
          <mxGeometry x="1" relative="1" as="geometry">
            <mxPoint x="34" y="34" as="offset" />
          </mxGeometry>
        </mxCell>
        <mxCell id="3xAvPwJ7bVQYbZ6u7dFE-59" value="" style="endArrow=none;html=1;rounded=0;exitX=1;exitY=0.5;exitDx=0;exitDy=0;strokeColor=default;align=center;verticalAlign=middle;fontFamily=Helvetica;fontSize=12;fontColor=#ffffff;labelBackgroundColor=default;entryX=0;entryY=0.5;entryDx=0;entryDy=0;" edge="1" source="3xAvPwJ7bVQYbZ6u7dFE-56" parent="1" target="3xAvPwJ7bVQYbZ6u7dFE-61">
          <mxGeometry relative="1" as="geometry">
            <mxPoint x="147" y="720" as="sourcePoint" />
            <mxPoint x="320" y="750" as="targetPoint" />
          </mxGeometry>
        </mxCell>
        <mxCell id="3xAvPwJ7bVQYbZ6u7dFE-60" value="(1,M)" style="resizable=0;html=1;whiteSpace=wrap;align=right;verticalAlign=bottom;strokeColor=#432D57;fontFamily=Helvetica;fontSize=12;fontColor=#ffffff;fillColor=#76608a;" connectable="0" vertex="1" parent="3xAvPwJ7bVQYbZ6u7dFE-59">
          <mxGeometry x="1" relative="1" as="geometry">
            <mxPoint as="offset" />
          </mxGeometry>
        </mxCell>
        <mxCell id="3xAvPwJ7bVQYbZ6u7dFE-78" value="" style="edgeStyle=none;shape=connector;rounded=0;orthogonalLoop=1;jettySize=auto;html=1;strokeColor=default;align=center;verticalAlign=middle;fontFamily=Helvetica;fontSize=12;fontColor=#ffffff;labelBackgroundColor=default;startFill=0;endArrow=none;" edge="1" parent="1" source="3xAvPwJ7bVQYbZ6u7dFE-61" target="3xAvPwJ7bVQYbZ6u7dFE-70">
          <mxGeometry relative="1" as="geometry" />
        </mxCell>
        <mxCell id="3xAvPwJ7bVQYbZ6u7dFE-61" value="empleado" style="whiteSpace=wrap;html=1;align=center;fillColor=#f0a30a;strokeColor=#BD7000;fontColor=#000000;verticalAlign=middle;fontFamily=Helvetica;fontSize=12;" vertex="1" parent="1">
          <mxGeometry x="340" y="730" width="100" height="40" as="geometry" />
        </mxCell>
        <mxCell id="3xAvPwJ7bVQYbZ6u7dFE-62" value="trabaja" style="shape=rhombus;perimeter=rhombusPerimeter;whiteSpace=wrap;html=1;align=center;fillColor=#76608a;fontColor=#ffffff;strokeColor=#432D57;verticalAlign=middle;fontFamily=Helvetica;fontSize=12;" vertex="1" parent="1">
          <mxGeometry x="502" y="730" width="90" height="40" as="geometry" />
        </mxCell>
        <mxCell id="3xAvPwJ7bVQYbZ6u7dFE-63" value="" style="endArrow=none;html=1;rounded=0;exitX=0;exitY=0.5;exitDx=0;exitDy=0;strokeColor=default;align=center;verticalAlign=middle;fontFamily=Helvetica;fontSize=12;fontColor=#ffffff;labelBackgroundColor=default;entryX=1;entryY=0.5;entryDx=0;entryDy=0;" edge="1" source="3xAvPwJ7bVQYbZ6u7dFE-62" parent="1" target="3xAvPwJ7bVQYbZ6u7dFE-61">
          <mxGeometry relative="1" as="geometry">
            <mxPoint x="515" y="720" as="sourcePoint" />
            <mxPoint x="468" y="750" as="targetPoint" />
          </mxGeometry>
        </mxCell>
        <mxCell id="3xAvPwJ7bVQYbZ6u7dFE-64" value="(1,N)" style="resizable=0;html=1;whiteSpace=wrap;align=right;verticalAlign=bottom;strokeColor=#432D57;fontFamily=Helvetica;fontSize=12;fontColor=#ffffff;fillColor=#76608a;" connectable="0" vertex="1" parent="3xAvPwJ7bVQYbZ6u7dFE-63">
          <mxGeometry x="1" relative="1" as="geometry">
            <mxPoint x="34" as="offset" />
          </mxGeometry>
        </mxCell>
        <mxCell id="3xAvPwJ7bVQYbZ6u7dFE-65" value="" style="endArrow=none;html=1;rounded=0;exitX=1;exitY=0.5;exitDx=0;exitDy=0;strokeColor=default;align=center;verticalAlign=middle;fontFamily=Helvetica;fontSize=12;fontColor=#ffffff;labelBackgroundColor=default;entryX=0;entryY=0.5;entryDx=0;entryDy=0;" edge="1" source="3xAvPwJ7bVQYbZ6u7dFE-62" parent="1" target="3xAvPwJ7bVQYbZ6u7dFE-67">
          <mxGeometry relative="1" as="geometry">
            <mxPoint x="515" y="720" as="sourcePoint" />
            <mxPoint x="688" y="750" as="targetPoint" />
          </mxGeometry>
        </mxCell>
        <mxCell id="3xAvPwJ7bVQYbZ6u7dFE-66" value="(1,1)" style="resizable=0;html=1;whiteSpace=wrap;align=right;verticalAlign=bottom;strokeColor=#432D57;fontFamily=Helvetica;fontSize=12;fontColor=#ffffff;fillColor=#76608a;" connectable="0" vertex="1" parent="3xAvPwJ7bVQYbZ6u7dFE-65">
          <mxGeometry x="1" relative="1" as="geometry">
            <mxPoint as="offset" />
          </mxGeometry>
        </mxCell>
        <mxCell id="3xAvPwJ7bVQYbZ6u7dFE-79" value="" style="edgeStyle=none;shape=connector;rounded=0;orthogonalLoop=1;jettySize=auto;html=1;strokeColor=default;align=center;verticalAlign=middle;fontFamily=Helvetica;fontSize=12;fontColor=#ffffff;labelBackgroundColor=default;startFill=0;endArrow=none;" edge="1" parent="1" source="3xAvPwJ7bVQYbZ6u7dFE-67" target="3xAvPwJ7bVQYbZ6u7dFE-62">
          <mxGeometry relative="1" as="geometry" />
        </mxCell>
        <mxCell id="3xAvPwJ7bVQYbZ6u7dFE-67" value="seccion" style="whiteSpace=wrap;html=1;align=center;fillColor=#f0a30a;strokeColor=#BD7000;fontColor=#000000;verticalAlign=middle;fontFamily=Helvetica;fontSize=12;" vertex="1" parent="1">
          <mxGeometry x="650" y="730" width="100" height="40" as="geometry" />
        </mxCell>
        <mxCell id="3xAvPwJ7bVQYbZ6u7dFE-73" style="edgeStyle=none;shape=connector;rounded=0;orthogonalLoop=1;jettySize=auto;html=1;exitX=0.5;exitY=1;exitDx=0;exitDy=0;entryX=0.75;entryY=0;entryDx=0;entryDy=0;strokeColor=default;align=center;verticalAlign=middle;fontFamily=Helvetica;fontSize=12;fontColor=#ffffff;labelBackgroundColor=default;startFill=0;endArrow=none;" edge="1" parent="1" source="3xAvPwJ7bVQYbZ6u7dFE-68" target="3xAvPwJ7bVQYbZ6u7dFE-61">
          <mxGeometry relative="1" as="geometry" />
        </mxCell>
        <mxCell id="3xAvPwJ7bVQYbZ6u7dFE-68" value="&lt;u&gt;NIF&lt;/u&gt;" style="ellipse;whiteSpace=wrap;html=1;align=center;fontFamily=Helvetica;fontSize=11;fontColor=default;labelBackgroundColor=default;" vertex="1" parent="1">
          <mxGeometry x="420" y="680" width="50" height="30" as="geometry" />
        </mxCell>
        <mxCell id="3xAvPwJ7bVQYbZ6u7dFE-71" style="edgeStyle=none;shape=connector;rounded=0;orthogonalLoop=1;jettySize=auto;html=1;exitX=0.5;exitY=1;exitDx=0;exitDy=0;entryX=0.5;entryY=0;entryDx=0;entryDy=0;strokeColor=default;align=center;verticalAlign=middle;fontFamily=Helvetica;fontSize=12;fontColor=#ffffff;labelBackgroundColor=default;startFill=0;endArrow=none;" edge="1" parent="1" source="3xAvPwJ7bVQYbZ6u7dFE-69" target="3xAvPwJ7bVQYbZ6u7dFE-61">
          <mxGeometry relative="1" as="geometry" />
        </mxCell>
        <mxCell id="3xAvPwJ7bVQYbZ6u7dFE-69" value="nombre" style="ellipse;whiteSpace=wrap;html=1;align=center;fontFamily=Helvetica;fontSize=11;fontColor=default;labelBackgroundColor=default;" vertex="1" parent="1">
          <mxGeometry x="360" y="680" width="50" height="30" as="geometry" />
        </mxCell>
        <mxCell id="3xAvPwJ7bVQYbZ6u7dFE-70" value="apellidos" style="ellipse;whiteSpace=wrap;html=1;align=center;fontFamily=Helvetica;fontSize=11;fontColor=default;labelBackgroundColor=default;" vertex="1" parent="1">
          <mxGeometry x="297.5" y="680" width="50" height="30" as="geometry" />
        </mxCell>
        <mxCell id="3xAvPwJ7bVQYbZ6u7dFE-74" value="" style="endArrow=none;html=1;rounded=0;strokeColor=default;align=center;verticalAlign=middle;fontFamily=Helvetica;fontSize=12;fontColor=#ffffff;labelBackgroundColor=default;exitX=0.5;exitY=0;exitDx=0;exitDy=0;" edge="1" target="3xAvPwJ7bVQYbZ6u7dFE-75" parent="1" source="3xAvPwJ7bVQYbZ6u7dFE-67">
          <mxGeometry relative="1" as="geometry">
            <mxPoint x="630" y="665" as="sourcePoint" />
            <mxPoint x="690" y="665" as="targetPoint" />
          </mxGeometry>
        </mxCell>
        <mxCell id="3xAvPwJ7bVQYbZ6u7dFE-75" value="&lt;u&gt;id&lt;/u&gt;" style="ellipse;whiteSpace=wrap;html=1;align=center;strokeColor=#432D57;verticalAlign=middle;fontFamily=Helvetica;fontSize=12;fontColor=#ffffff;fillColor=#76608a;" vertex="1" parent="1">
          <mxGeometry x="637.5" y="680" width="50" height="30" as="geometry" />
        </mxCell>
        <mxCell id="3xAvPwJ7bVQYbZ6u7dFE-76" value="" style="endArrow=none;html=1;rounded=0;strokeColor=default;align=center;verticalAlign=middle;fontFamily=Helvetica;fontSize=12;fontColor=#ffffff;labelBackgroundColor=default;exitX=0.75;exitY=0;exitDx=0;exitDy=0;" edge="1" target="3xAvPwJ7bVQYbZ6u7dFE-77" parent="1" source="3xAvPwJ7bVQYbZ6u7dFE-67">
          <mxGeometry relative="1" as="geometry">
            <mxPoint x="742" y="695" as="sourcePoint" />
            <mxPoint x="802" y="695" as="targetPoint" />
          </mxGeometry>
        </mxCell>
        <mxCell id="3xAvPwJ7bVQYbZ6u7dFE-77" value="nombreSeccion" style="ellipse;whiteSpace=wrap;html=1;align=center;strokeColor=#432D57;verticalAlign=middle;fontFamily=Helvetica;fontSize=12;fontColor=#ffffff;fillColor=#76608a;" vertex="1" parent="1">
          <mxGeometry x="700" y="680" width="93" height="30" as="geometry" />
        </mxCell>
      </root>
    </mxGraphModel>
  </diagram>
</mxfile>
